<?xml version="1.0" encoding="UTF-8"?>
<svg width="82px" height="80px" viewBox="0 0 82 80" version="1.1" xmlns="http://www.w3.org/2000/svg" xmlns:xlink="http://www.w3.org/1999/xlink">
    <!-- Generator: Sketch 52 (66869) - http://www.bohemiancoding.com/sketch -->
    <title>learning-path</title>
    <desc>Created with Sketch.</desc>
    <g id="learning-path" stroke="none" stroke-width="1" fill="none" fill-rule="evenodd">
        <g id="noun_camping-trip_1451244" fill="#21AB07">
            <circle id="Oval" cx="20.078" cy="23.27" r="5.629"></circle>
            <path d="M18.158,49.152 L18.145,49.148 C18.477,48.656 18.743,48.109 18.89,47.5 L19.153,46.416 L15.201,45.458 L14.668,45.275 C13.051,44.884 12.033,43.215 12.433,41.563 L14.439,33.288 C14.84,31.636 16.512,30.622 18.162,31.018 C19.814,31.419 20.833,33.089 20.432,34.742 L19.141,40.068 L20.607,40.423 L21.719,35.838 C22.389,33.075 20.676,30.266 17.913,29.596 C15.15,28.926 12.341,30.639 11.671,33.402 L11.868,32.589 C12.301,30.803 11.54,29.004 10.11,28.012 C11.988,27.518 13.38,25.824 13.38,23.791 C13.38,21.371 11.418,19.41 8.999,19.41 C6.58,19.41 4.618,21.372 4.618,23.791 C4.618,25.083 5.188,26.233 6.078,27.035 C4.353,27.262 2.853,28.513 2.42,30.299 L0.21,39.405 C-0.351,41.721 1.084,44.076 3.4,44.637 L4.426,44.886 C6.742,45.447 9.096,44.012 9.658,41.696 L8.841,45.065 C8.731,45.519 8.707,45.971 8.72,46.417 L8.703,46.412 C8.963,51.06 8.827,55.75 8.009,60.34 C7.188,64.944 6.001,69.756 2.987,73.455 C2.48,74.078 2.234,74.865 2.234,75.673 C2.234,77.774 3.937,79.477 6.038,79.477 C7.334,79.477 8.477,78.827 9.163,77.837 C11.347,74.784 12.713,70.905 13.716,67.431 C14.719,63.953 15.32,60.373 15.644,56.77 L15.646,56.77 C17.334,61.485 18.123,66.439 18.6,71.505 C18.73,72.888 18.821,74.281 18.808,75.674 L18.816,75.674 C18.816,77.775 20.519,79.478 22.62,79.478 C22.962,79.478 23.304,79.432 23.634,79.341 C24.515,79.098 25.291,78.532 25.795,77.77 C26.415,76.832 26.438,75.75 26.448,74.658 C26.472,72.117 25.976,69.604 25.375,67.146 C23.82,60.781 21.801,54.651 18.158,49.152 Z" id="Path"></path>
            <path d="M9.192,77.8 C9.183,77.813 9.172,77.824 9.163,77.837 C9.149,77.856 9.137,77.877 9.124,77.896 L9.192,77.8 Z" id="Path"></path>
            <path d="M25.355,41.62 C25.966,41.866 26.485,42.29 26.835,42.863 C26.938,43.033 27.023,43.21 27.091,43.392 L26.47,37.645 L24.944,37.81 L25.355,41.62 Z" id="Path"></path>
            <path d="M19.686,34.56 C19.987,33.319 19.222,32.065 17.981,31.764 C17.799,31.72 17.616,31.698 17.436,31.698 C16.392,31.698 15.441,32.411 15.185,33.469 L13.179,41.744 C12.878,42.984 13.643,44.238 14.884,44.539 L15.417,44.722 L23.657,46.717 C24.899,47.02 26.152,46.252 26.453,45.012 C26.599,44.411 26.502,43.789 26.179,43.261 C25.857,42.733 25.349,42.362 24.748,42.217 L18.587,40.723 C18.381,40.673 18.255,40.465 18.304,40.259 L19.686,34.56 Z" id="Path"></path>
            <path d="M27.199,45.194 C27.012,45.964 26.545,46.588 25.937,47.003 L29.442,79.451 L30.968,79.286 L27.248,44.847 C27.233,44.963 27.227,45.079 27.199,45.194 Z" id="Path"></path>
            <path d="M59.659,39.875 L62.016,39.875 C62.513,39.875 62.823,39.337 62.575,38.907 L57.15,29.493 L60.135,29.493 C60.632,29.493 60.942,28.955 60.694,28.525 L51.726,12.964 C51.478,12.533 50.856,12.533 50.607,12.964 L41.64,28.525 C41.392,28.955 41.703,29.493 42.199,29.493 L45.184,29.493 L39.759,38.907 C39.511,39.337 39.822,39.875 40.318,39.875 L42.675,39.875 L37.623,48.642 C37.375,49.072 37.686,49.61 38.182,49.61 L49.667,49.61 L49.667,60.118 L52.667,60.118 L52.667,49.61 L64.152,49.61 C64.649,49.61 64.959,49.072 64.711,48.642 L59.659,39.875 Z" id="Path"></path>
            <path d="M81.825,39.357 L79.008,34.469 L79.981,34.469 C80.478,34.469 80.788,33.931 80.54,33.501 L77.499,28.224 L78.849,28.224 C79.346,28.224 79.656,27.686 79.408,27.256 L74.459,18.668 C74.211,18.237 73.589,18.237 73.34,18.668 L68.391,27.256 C68.143,27.686 68.454,28.224 68.95,28.224 L70.3,28.224 L67.259,33.501 C67.011,33.931 67.322,34.469 67.818,34.469 L68.791,34.469 L65.974,39.357 C65.726,39.787 66.037,40.325 66.533,40.325 L72.4,40.325 L72.4,46.645 L75.4,46.645 L75.4,40.325 L81.265,40.325 C81.762,40.325 82.073,39.788 81.825,39.357 Z" id="Path"></path>
            <path d="M69.589,17.455 C70.086,17.455 70.396,16.917 70.148,16.487 L68.084,12.905 L68.59,12.905 C69.087,12.905 69.397,12.367 69.149,11.937 L66.911,8.053 L67.711,8.053 C68.208,8.053 68.518,7.515 68.27,7.085 L64.674,0.845 C64.426,0.414 63.804,0.414 63.555,0.845 L59.959,7.085 C59.711,7.515 60.022,8.053 60.518,8.053 L61.318,8.053 L59.08,11.937 C58.832,12.367 59.143,12.905 59.639,12.905 L60.145,12.905 L58.081,16.487 C57.833,16.917 58.144,17.455 58.64,17.455 L62.613,17.455 L62.613,22.366 L65.613,22.366 L65.613,17.455 L69.589,17.455 Z" id="Path"></path>
        </g>
    </g>
</svg>